<svg xmlns="http://www.w3.org/2000/svg" viewBox="0 0 1024 1024" fill="none">
  <rect x="0.0" y="0.0" width="1024.0" height="1024.0" rx="180" ry="180" fill="#4F6F66"/>
  <g transform="scale(0.5)">
    <path d="M 1680 1102 L 1674 1103 L 1668 1103 L 1662 1104 L 1656 1106 L 1650 1108 L 1644 1110 L 1638 1112 L 1632 1115 L 1626 1118 L 1620 1122 L 1614 1126 L 1608 1131 L 1602 1137 L 1596 1143 L 1591 1149 L 1587 1155 L 1583 1161 L 1580 1167 L 1578 1173 L 1576 1179 L 1574 1185 L 1573 1191 L 1572 1197 L 1571 1203 L 1571 1209 L 1571 1215 L 1571 1221 L 1572 1227 L 1573 1233 L 1574 1239 L 1576 1245 L 1578 1251 L 1581 1257 L 1581 1263 L 1578 1269 L 1572 1275 L 1566 1281 L 1560 1287 L 1554 1293 L 1548 1299 L 1542 1305 L 1536 1311 L 1530 1317 L 1524 1323 L 1518 1329 L 1512 1335 L 1506 1341 L 1500 1347 L 1494 1353 L 1488 1359 L 1482 1365 L 1476 1371 L 1470 1376 L 1465 1382 L 1459 1388 L 1453 1394 L 1447 1400 L 1441 1406 L 1435 1411 L 1430 1417 L 1424 1422 L 1418 1428 L 1412 1434 L 1406 1440 L 1400 1446 L 1394 1452 L 1388 1458 L 1382 1464 L 1376 1470 L 1370 1476 L 1364 1482 L 1358 1488 L 1352 1493 L 1346 1499 L 1340 1505 L 1334 1511 L 1328 1517 L 1322 1523 L 1316 1529 L 1310 1535 L 1304 1541 L 1298 1547 L 1292 1553 L 1286 1559 L 1280 1565 L 1274 1571 L 1268 1577 L 1262 1581 L 1256 1581 L 1250 1579 L 1244 1574 L 1238 1568 L 1232 1562 L 1226 1556 L 1220 1550 L 1214 1544 L 1208 1538 L 1202 1532 L 1197 1526 L 1191 1520 L 1185 1515 L 1180 1509 L 1174 1503 L 1168 1497 L 1163 1491 L 1157 1485 L 1151 1479 L 1145 1473 L 1139 1467 L 1133 1461 L 1127 1455 L 1121 1449 L 1115 1443 L 1109 1439 L 1103 1437 L 1097 1437 L 1091 1439 L 1085 1442 L 1079 1448 L 1073 1453 L 1067 1459 L 1061 1465 L 1055 1471 L 1049 1477 L 1043 1483 L 1037 1489 L 1031 1495 L 1025 1501 L 1019 1507 L 1013 1513 L 1007 1519 L 1001 1525 L 995 1531 L 989 1537 L 983 1543 L 977 1549 L 971 1555 L 965 1561 L 959 1567 L 953 1573 L 947 1579 L 941 1585 L 935 1591 L 929 1597 L 923 1603 L 917 1609 L 911 1614 L 905 1620 L 900 1626 L 897 1632 L 894 1638 L 893 1644 L 893 1650 L 894 1656 L 897 1662 L 900 1668 L 905 1674 L 911 1678 L 917 1682 L 923 1683 L 929 1684 L 935 1684 L 941 1682 L 947 1680 L 953 1676 L 959 1670 L 965 1664 L 971 1658 L 977 1652 L 983 1646 L 989 1640 L 995 1634 L 1001 1628 L 1007 1622 L 1013 1616 L 1019 1610 L 1025 1604 L 1031 1598 L 1037 1592 L 1043 1586 L 1049 1580 L 1055 1574 L 1061 1568 L 1067 1562 L 1073 1556 L 1079 1550 L 1085 1544 L 1091 1538 L 1097 1537 L 1103 1539 L 1109 1545 L 1115 1551 L 1121 1557 L 1127 1563 L 1133 1569 L 1139 1575 L 1145 1581 L 1150 1587 L 1156 1593 L 1162 1599 L 1167 1605 L 1173 1611 L 1179 1617 L 1185 1623 L 1191 1629 L 1196 1635 L 1202 1641 L 1208 1647 L 1214 1653 L 1220 1659 L 1226 1665 L 1232 1671 L 1238 1676 L 1244 1680 L 1250 1683 L 1256 1684 L 1262 1684 L 1268 1682 L 1274 1680 L 1280 1676 L 1286 1670 L 1292 1664 L 1298 1658 L 1304 1652 L 1310 1646 L 1316 1640 L 1322 1634 L 1328 1628 L 1334 1622 L 1340 1616 L 1346 1610 L 1352 1604 L 1358 1599 L 1363 1594 L 1369 1588 L 1374 1582 L 1380 1576 L 1386 1570 L 1392 1564 L 1398 1559 L 1403 1553 L 1409 1547 L 1415 1541 L 1421 1535 L 1427 1529 L 1433 1523 L 1439 1517 L 1445 1511 L 1451 1505 L 1457 1499 L 1463 1493 L 1468 1487 L 1474 1481 L 1480 1475 L 1486 1469 L 1492 1464 L 1498 1458 L 1503 1452 L 1509 1446 L 1515 1440 L 1521 1434 L 1527 1428 L 1533 1422 L 1539 1416 L 1545 1410 L 1551 1404 L 1557 1398 L 1563 1392 L 1569 1386 L 1575 1380 L 1581 1374 L 1587 1368 L 1593 1362 L 1599 1356 L 1605 1350 L 1611 1344 L 1617 1338 L 1622 1332 L 1628 1326 L 1634 1320 L 1640 1317 L 1646 1317 L 1652 1318 L 1658 1319 L 1664 1320 L 1670 1321 L 1676 1321 L 1682 1321 L 1688 1321 L 1694 1321 L 1700 1320 L 1706 1319 L 1712 1317 L 1718 1315 L 1724 1313 L 1730 1310 L 1736 1307 L 1742 1303 L 1748 1299 L 1754 1294 L 1760 1288 L 1765 1282 L 1770 1276 L 1775 1270 L 1778 1264 L 1781 1258 L 1784 1252 L 1786 1246 L 1787 1240 L 1789 1234 L 1790 1228 L 1791 1222 L 1791 1216 L 1791 1210 L 1791 1204 L 1790 1198 L 1789 1192 L 1788 1186 L 1786 1180 L 1784 1174 L 1782 1168 L 1779 1162 L 1776 1156 L 1772 1150 L 1767 1144 L 1762 1138 L 1756 1132 L 1750 1127 L 1744 1122 L 1738 1118 L 1732 1115 L 1726 1112 L 1720 1109 L 1714 1108 L 1708 1106 L 1702 1104 L 1696 1103 L 1690 1103 L 1684 1103 Z M 1669 1170 L 1675 1169 L 1681 1169 L 1687 1169 L 1693 1170 L 1699 1173 L 1705 1176 L 1711 1181 L 1716 1187 L 1719 1193 L 1722 1199 L 1723 1205 L 1724 1211 L 1723 1217 L 1722 1223 L 1720 1229 L 1717 1235 L 1713 1241 L 1707 1246 L 1701 1250 L 1695 1253 L 1689 1255 L 1683 1255 L 1677 1255 L 1671 1255 L 1665 1253 L 1659 1251 L 1653 1247 L 1647 1242 L 1643 1236 L 1639 1230 L 1637 1224 L 1636 1218 L 1636 1212 L 1636 1206 L 1637 1200 L 1640 1194 L 1643 1188 L 1648 1182 L 1654 1177 L 1660 1173 L 1666 1171 Z M 967 656 L 961 657 L 955 658 L 949 659 L 943 661 L 937 663 L 931 665 L 925 668 L 919 670 L 913 674 L 907 678 L 901 682 L 895 687 L 889 692 L 883 698 L 877 704 L 873 710 L 870 716 L 869 722 L 871 728 L 876 732 L 882 734 L 888 735 L 894 736 L 900 736 L 906 736 L 912 736 L 918 736 L 924 736 L 925 742 L 925 748 L 926 754 L 927 760 L 928 766 L 931 772 L 934 778 L 938 784 L 944 790 L 950 794 L 956 798 L 962 801 L 968 803 L 974 804 L 980 804 L 986 803 L 992 802 L 998 800 L 1004 797 L 1010 794 L 1016 789 L 1022 783 L 1026 777 L 1029 771 L 1032 765 L 1034 759 L 1035 753 L 1035 747 L 1039 744 L 1045 744 L 1051 744 L 1057 744 L 1063 744 L 1069 743 L 1075 740 L 1077 734 L 1076 728 L 1073 722 L 1070 716 L 1067 710 L 1064 704 L 1059 698 L 1054 692 L 1049 686 L 1043 681 L 1037 676 L 1031 672 L 1025 668 L 1019 665 L 1013 663 L 1007 661 L 1001 659 L 995 658 L 989 657 L 983 657 L 977 656 L 971 656 Z M 554 292 L 548 293 L 542 294 L 536 294 L 530 296 L 524 297 L 518 298 L 512 300 L 506 302 L 500 304 L 494 306 L 488 308 L 482 311 L 476 313 L 470 316 L 464 319 L 458 323 L 452 327 L 446 331 L 440 335 L 434 339 L 428 344 L 422 350 L 416 355 L 410 361 L 405 367 L 400 373 L 395 379 L 390 385 L 386 391 L 382 397 L 378 403 L 375 409 L 372 415 L 369 421 L 366 427 L 364 433 L 361 439 L 359 445 L 358 451 L 356 457 L 354 463 L 353 469 L 352 475 L 351 481 L 350 487 L 350 493 L 349 499 L 349 505 L 349 511 L 349 517 L 349 523 L 350 529 L 350 535 L 351 541 L 352 547 L 352 553 L 354 559 L 355 565 L 357 571 L 359 577 L 361 583 L 363 589 L 365 595 L 368 601 L 371 607 L 374 613 L 377 619 L 381 625 L 384 631 L 388 637 L 393 643 L 397 649 L 400 655 L 400 661 L 396 667 L 392 673 L 388 679 L 384 685 L 380 691 L 376 697 L 373 703 L 369 709 L 366 715 L 363 721 L 359 727 L 356 733 L 353 739 L 350 745 L 347 751 L 344 757 L 341 763 L 338 769 L 336 775 L 333 781 L 330 787 L 327 793 L 325 799 L 322 805 L 320 811 L 318 817 L 315 823 L 313 829 L 311 835 L 309 841 L 306 847 L 304 853 L 302 859 L 300 865 L 298 871 L 296 877 L 294 883 L 293 889 L 291 895 L 289 901 L 287 907 L 286 913 L 284 919 L 282 925 L 281 931 L 279 937 L 278 943 L 276 949 L 275 955 L 274 961 L 272 967 L 271 973 L 270 979 L 269 985 L 268 991 L 267 997 L 266 1003 L 265 1009 L 264 1015 L 262 1021 L 262 1027 L 261 1033 L 260 1039 L 259 1045 L 258 1051 L 258 1057 L 257 1063 L 257 1069 L 256 1075 L 256 1081 L 255 1087 L 255 1093 L 254 1099 L 254 1105 L 254 1111 L 253 1117 L 253 1123 L 253 1129 L 253 1135 L 253 1141 L 253 1147 L 253 1153 L 253 1159 L 253 1165 L 254 1171 L 254 1177 L 254 1183 L 255 1189 L 255 1195 L 256 1201 L 256 1207 L 257 1213 L 258 1219 L 258 1225 L 259 1231 L 261 1237 L 262 1243 L 263 1249 L 264 1255 L 265 1261 L 267 1267 L 269 1273 L 270 1279 L 272 1285 L 274 1291 L 276 1297 L 278 1303 L 281 1309 L 283 1315 L 286 1321 L 288 1327 L 291 1333 L 294 1339 L 297 1345 L 300 1351 L 303 1357 L 306 1363 L 309 1369 L 313 1375 L 316 1381 L 320 1387 L 324 1393 L 327 1399 L 331 1405 L 335 1411 L 339 1417 L 343 1423 L 348 1429 L 352 1435 L 356 1441 L 361 1447 L 366 1453 L 371 1459 L 375 1465 L 380 1471 L 385 1477 L 391 1483 L 396 1489 L 401 1495 L 406 1501 L 411 1507 L 417 1513 L 423 1519 L 429 1525 L 434 1530 L 439 1536 L 445 1541 L 451 1547 L 457 1553 L 463 1559 L 469 1564 L 475 1569 L 481 1575 L 487 1580 L 493 1585 L 499 1590 L 505 1595 L 511 1600 L 517 1605 L 523 1609 L 529 1614 L 535 1619 L 541 1623 L 547 1628 L 553 1632 L 559 1636 L 565 1640 L 571 1644 L 577 1648 L 583 1652 L 589 1656 L 595 1659 L 601 1663 L 607 1667 L 613 1670 L 619 1673 L 625 1677 L 631 1680 L 637 1683 L 643 1686 L 649 1689 L 655 1692 L 661 1695 L 667 1697 L 673 1700 L 679 1703 L 685 1705 L 691 1707 L 697 1710 L 703 1712 L 709 1714 L 715 1716 L 721 1717 L 727 1715 L 733 1710 L 739 1704 L 745 1698 L 751 1692 L 757 1686 L 763 1680 L 769 1674 L 775 1668 L 781 1662 L 787 1656 L 793 1650 L 799 1644 L 805 1638 L 811 1632 L 817 1626 L 823 1620 L 829 1614 L 835 1608 L 841 1602 L 847 1596 L 853 1590 L 859 1584 L 865 1578 L 871 1572 L 877 1566 L 883 1560 L 889 1554 L 895 1548 L 901 1542 L 907 1536 L 912 1530 L 917 1525 L 922 1520 L 928 1515 L 933 1509 L 939 1503 L 945 1497 L 951 1491 L 957 1485 L 963 1479 L 969 1473 L 975 1467 L 981 1461 L 987 1455 L 993 1449 L 999 1443 L 1005 1437 L 1011 1431 L 1017 1425 L 1023 1419 L 1029 1413 L 1034 1407 L 1040 1401 L 1046 1396 L 1051 1390 L 1057 1384 L 1063 1379 L 1069 1374 L 1075 1370 L 1081 1367 L 1087 1365 L 1093 1364 L 1099 1364 L 1105 1365 L 1111 1366 L 1117 1368 L 1123 1371 L 1129 1375 L 1135 1379 L 1141 1385 L 1147 1391 L 1153 1397 L 1159 1403 L 1165 1409 L 1171 1414 L 1177 1416 L 1183 1414 L 1189 1409 L 1195 1403 L 1200 1397 L 1206 1391 L 1212 1385 L 1217 1379 L 1223 1373 L 1228 1367 L 1234 1361 L 1239 1355 L 1245 1349 L 1250 1343 L 1256 1337 L 1262 1331 L 1268 1325 L 1273 1319 L 1279 1313 L 1285 1307 L 1290 1301 L 1296 1295 L 1302 1289 L 1308 1283 L 1314 1277 L 1320 1271 L 1326 1265 L 1332 1259 L 1338 1253 L 1344 1248 L 1350 1242 L 1356 1236 L 1362 1230 L 1368 1225 L 1374 1219 L 1380 1213 L 1386 1208 L 1392 1202 L 1398 1197 L 1404 1191 L 1410 1186 L 1416 1180 L 1422 1175 L 1428 1169 L 1434 1163 L 1440 1157 L 1445 1151 L 1450 1145 L 1455 1139 L 1460 1133 L 1465 1127 L 1469 1121 L 1473 1115 L 1476 1109 L 1480 1103 L 1483 1097 L 1486 1091 L 1489 1085 L 1491 1079 L 1493 1073 L 1496 1067 L 1497 1061 L 1499 1055 L 1501 1049 L 1502 1043 L 1504 1037 L 1505 1031 L 1506 1025 L 1507 1019 L 1508 1013 L 1509 1007 L 1510 1001 L 1510 995 L 1511 989 L 1511 983 L 1512 977 L 1512 971 L 1512 965 L 1513 959 L 1513 953 L 1513 947 L 1512 941 L 1512 935 L 1511 929 L 1511 923 L 1510 917 L 1509 911 L 1509 905 L 1507 899 L 1506 893 L 1505 887 L 1503 881 L 1501 875 L 1499 869 L 1496 863 L 1492 857 L 1489 851 L 1485 845 L 1480 839 L 1480 833 L 1481 827 L 1481 821 L 1481 815 L 1481 809 L 1481 803 L 1481 797 L 1482 791 L 1482 785 L 1482 779 L 1481 773 L 1481 767 L 1481 761 L 1481 755 L 1481 749 L 1480 743 L 1480 737 L 1479 731 L 1479 725 L 1479 719 L 1478 713 L 1477 707 L 1477 701 L 1476 695 L 1475 689 L 1474 683 L 1472 677 L 1471 671 L 1470 665 L 1468 659 L 1467 653 L 1465 647 L 1463 641 L 1461 635 L 1458 629 L 1455 623 L 1452 617 L 1449 611 L 1445 605 L 1442 599 L 1442 593 L 1444 587 L 1449 581 L 1453 575 L 1456 569 L 1460 563 L 1463 557 L 1465 551 L 1468 545 L 1470 539 L 1472 533 L 1473 527 L 1475 521 L 1476 515 L 1477 509 L 1477 503 L 1477 497 L 1478 491 L 1478 485 L 1478 479 L 1478 473 L 1477 467 L 1477 461 L 1476 455 L 1475 449 L 1474 443 L 1473 437 L 1471 431 L 1469 425 L 1467 419 L 1465 413 L 1462 407 L 1459 401 L 1456 395 L 1453 389 L 1449 383 L 1445 377 L 1440 371 L 1435 365 L 1430 359 L 1424 354 L 1418 348 L 1412 344 L 1406 339 L 1400 335 L 1394 331 L 1388 328 L 1382 326 L 1376 323 L 1370 321 L 1364 319 L 1358 317 L 1352 316 L 1346 315 L 1340 314 L 1334 313 L 1328 312 L 1322 312 L 1316 311 L 1310 312 L 1304 312 L 1298 312 L 1292 313 L 1286 314 L 1280 315 L 1274 316 L 1268 318 L 1262 320 L 1256 322 L 1250 324 L 1244 327 L 1238 330 L 1232 333 L 1226 336 L 1220 340 L 1214 344 L 1208 348 L 1202 353 L 1196 358 L 1190 364 L 1184 370 L 1178 376 L 1173 381 L 1167 381 L 1161 380 L 1155 378 L 1149 376 L 1143 374 L 1137 372 L 1131 370 L 1125 368 L 1119 367 L 1113 365 L 1107 364 L 1101 362 L 1095 361 L 1089 360 L 1083 358 L 1077 357 L 1071 356 L 1065 355 L 1059 354 L 1053 353 L 1047 352 L 1041 352 L 1035 351 L 1029 350 L 1023 349 L 1017 349 L 1011 348 L 1005 348 L 999 348 L 993 347 L 987 347 L 981 346 L 975 346 L 969 346 L 963 346 L 957 346 L 951 346 L 945 346 L 939 346 L 933 347 L 927 347 L 921 347 L 915 347 L 909 348 L 903 349 L 897 349 L 891 350 L 885 351 L 879 351 L 873 352 L 867 353 L 861 354 L 855 355 L 849 356 L 843 357 L 837 358 L 831 359 L 825 360 L 819 362 L 813 363 L 807 365 L 801 366 L 795 367 L 789 369 L 783 371 L 777 372 L 771 374 L 765 376 L 759 378 L 753 379 L 747 379 L 742 373 L 736 367 L 730 361 L 724 356 L 718 350 L 712 345 L 706 341 L 700 336 L 694 332 L 688 328 L 682 324 L 676 321 L 670 318 L 664 315 L 658 312 L 652 309 L 646 307 L 640 305 L 634 303 L 628 301 L 622 299 L 616 298 L 610 296 L 604 295 L 598 294 L 592 293 L 586 292 L 580 292 L 574 292 L 568 292 L 562 292 L 556 292 Z M 1427 1008 L 1433 1007 L 1437 1010 L 1437 1016 L 1436 1022 L 1435 1028 L 1434 1034 L 1432 1040 L 1430 1046 L 1428 1052 L 1426 1058 L 1423 1064 L 1420 1070 L 1417 1076 L 1413 1082 L 1407 1088 L 1402 1093 L 1396 1096 L 1390 1096 L 1385 1092 L 1382 1086 L 1382 1080 L 1382 1074 L 1381 1068 L 1381 1062 L 1381 1056 L 1381 1050 L 1382 1044 L 1382 1038 L 1383 1032 L 1389 1029 L 1395 1026 L 1401 1024 L 1407 1021 L 1413 1018 L 1419 1014 L 1425 1009 Z M 561 401 L 567 400 L 573 400 L 579 401 L 585 402 L 591 403 L 597 405 L 603 407 L 609 410 L 615 413 L 621 416 L 627 420 L 633 424 L 639 429 L 645 433 L 651 439 L 657 444 L 663 450 L 668 456 L 674 462 L 679 468 L 684 474 L 688 480 L 692 486 L 698 492 L 704 496 L 710 498 L 716 498 L 722 497 L 728 494 L 734 491 L 740 489 L 746 486 L 752 483 L 758 481 L 764 479 L 770 476 L 776 474 L 782 472 L 788 470 L 794 468 L 800 466 L 806 464 L 812 462 L 818 461 L 824 459 L 830 458 L 836 456 L 842 455 L 848 453 L 854 452 L 860 451 L 866 450 L 872 449 L 878 448 L 884 447 L 890 447 L 896 446 L 902 445 L 908 445 L 914 444 L 920 443 L 926 443 L 932 443 L 938 442 L 944 442 L 950 442 L 956 442 L 962 442 L 968 442 L 974 442 L 980 442 L 986 442 L 992 443 L 998 443 L 1004 443 L 1010 444 L 1016 444 L 1022 445 L 1028 445 L 1034 446 L 1040 447 L 1046 447 L 1052 448 L 1058 449 L 1064 450 L 1070 451 L 1076 452 L 1082 454 L 1088 455 L 1094 456 L 1100 458 L 1106 459 L 1112 461 L 1118 462 L 1124 464 L 1130 466 L 1136 468 L 1142 470 L 1148 472 L 1154 474 L 1160 476 L 1166 479 L 1172 481 L 1178 483 L 1184 486 L 1190 489 L 1196 491 L 1202 495 L 1208 497 L 1214 501 L 1220 504 L 1226 507 L 1232 511 L 1238 514 L 1244 518 L 1250 522 L 1256 526 L 1262 530 L 1268 534 L 1274 538 L 1280 543 L 1286 548 L 1292 552 L 1298 557 L 1304 562 L 1310 567 L 1316 573 L 1322 578 L 1328 584 L 1334 590 L 1340 596 L 1345 602 L 1351 608 L 1356 614 L 1361 620 L 1366 626 L 1370 632 L 1375 638 L 1379 644 L 1382 650 L 1386 656 L 1390 662 L 1390 668 L 1387 672 L 1381 672 L 1375 669 L 1369 666 L 1363 664 L 1357 662 L 1351 662 L 1345 661 L 1339 661 L 1333 662 L 1327 663 L 1321 665 L 1315 668 L 1309 672 L 1303 678 L 1298 684 L 1294 690 L 1292 696 L 1290 702 L 1290 708 L 1289 714 L 1289 720 L 1290 726 L 1291 732 L 1294 738 L 1296 744 L 1300 750 L 1305 756 L 1310 762 L 1316 768 L 1322 774 L 1328 780 L 1334 785 L 1340 791 L 1346 796 L 1352 802 L 1358 807 L 1364 812 L 1370 818 L 1376 823 L 1382 828 L 1388 834 L 1394 840 L 1400 846 L 1406 851 L 1409 857 L 1408 863 L 1402 863 L 1396 863 L 1390 862 L 1384 862 L 1378 861 L 1372 861 L 1366 860 L 1360 860 L 1354 860 L 1348 860 L 1342 860 L 1336 861 L 1330 861 L 1324 861 L 1318 862 L 1312 863 L 1306 864 L 1300 865 L 1294 866 L 1288 868 L 1282 869 L 1276 871 L 1270 874 L 1264 877 L 1258 881 L 1252 885 L 1246 889 L 1241 895 L 1237 901 L 1233 907 L 1231 913 L 1229 919 L 1228 925 L 1228 931 L 1228 937 L 1228 943 L 1229 949 L 1231 955 L 1233 961 L 1235 967 L 1238 973 L 1242 979 L 1246 985 L 1251 991 L 1257 997 L 1263 1003 L 1269 1008 L 1275 1012 L 1281 1016 L 1287 1019 L 1293 1022 L 1299 1025 L 1305 1027 L 1311 1029 L 1317 1030 L 1323 1032 L 1329 1033 L 1331 1039 L 1331 1045 L 1330 1051 L 1330 1057 L 1329 1063 L 1327 1069 L 1325 1075 L 1322 1081 L 1318 1087 L 1313 1093 L 1307 1099 L 1301 1104 L 1295 1108 L 1289 1111 L 1283 1114 L 1277 1116 L 1271 1119 L 1265 1121 L 1259 1123 L 1253 1124 L 1247 1125 L 1241 1126 L 1235 1127 L 1229 1128 L 1223 1129 L 1217 1129 L 1211 1129 L 1205 1129 L 1199 1129 L 1193 1128 L 1187 1128 L 1181 1127 L 1175 1126 L 1169 1125 L 1163 1124 L 1157 1123 L 1151 1121 L 1145 1119 L 1139 1117 L 1133 1115 L 1127 1113 L 1121 1110 L 1115 1108 L 1109 1105 L 1103 1102 L 1097 1099 L 1091 1096 L 1085 1092 L 1079 1088 L 1073 1084 L 1067 1081 L 1061 1078 L 1055 1077 L 1049 1078 L 1043 1082 L 1039 1088 L 1038 1094 L 1039 1100 L 1041 1106 L 1044 1112 L 1049 1118 L 1054 1124 L 1060 1130 L 1066 1135 L 1072 1140 L 1078 1145 L 1084 1150 L 1090 1154 L 1096 1158 L 1102 1162 L 1108 1166 L 1114 1169 L 1120 1172 L 1126 1175 L 1132 1178 L 1134 1183 L 1132 1188 L 1126 1189 L 1120 1190 L 1114 1191 L 1108 1192 L 1102 1192 L 1096 1193 L 1090 1194 L 1084 1194 L 1078 1195 L 1072 1196 L 1066 1196 L 1060 1196 L 1054 1197 L 1048 1197 L 1042 1197 L 1036 1198 L 1030 1198 L 1024 1198 L 1018 1198 L 1012 1198 L 1006 1198 L 1000 1198 L 994 1198 L 988 1198 L 982 1198 L 976 1198 L 970 1197 L 964 1197 L 958 1197 L 952 1196 L 946 1196 L 940 1196 L 934 1195 L 928 1195 L 922 1194 L 916 1193 L 910 1193 L 904 1192 L 898 1192 L 892 1191 L 886 1190 L 880 1189 L 874 1188 L 868 1187 L 862 1186 L 856 1185 L 850 1184 L 844 1183 L 838 1182 L 832 1180 L 826 1179 L 820 1178 L 814 1176 L 808 1174 L 802 1173 L 796 1171 L 790 1169 L 784 1168 L 778 1166 L 772 1164 L 766 1162 L 760 1160 L 754 1157 L 748 1155 L 742 1153 L 736 1150 L 730 1147 L 724 1144 L 718 1141 L 712 1138 L 706 1135 L 700 1132 L 694 1128 L 688 1125 L 682 1121 L 676 1117 L 670 1113 L 664 1109 L 658 1105 L 652 1100 L 646 1095 L 640 1090 L 634 1085 L 628 1079 L 622 1073 L 616 1067 L 611 1061 L 606 1055 L 601 1049 L 597 1043 L 593 1037 L 589 1031 L 585 1025 L 582 1019 L 578 1013 L 576 1007 L 572 1001 L 570 995 L 567 989 L 564 983 L 562 977 L 560 971 L 558 965 L 556 959 L 554 953 L 553 947 L 552 941 L 550 935 L 545 932 L 541 937 L 539 943 L 537 949 L 535 955 L 534 961 L 533 967 L 532 973 L 531 979 L 531 985 L 530 991 L 530 997 L 530 1003 L 530 1009 L 530 1015 L 530 1021 L 530 1027 L 531 1033 L 532 1039 L 533 1045 L 534 1051 L 536 1057 L 537 1063 L 538 1069 L 540 1075 L 542 1081 L 544 1087 L 546 1093 L 549 1099 L 551 1105 L 554 1111 L 557 1117 L 560 1123 L 563 1129 L 567 1135 L 571 1141 L 575 1147 L 579 1153 L 584 1159 L 589 1165 L 593 1171 L 599 1177 L 605 1183 L 610 1189 L 616 1194 L 622 1200 L 628 1205 L 634 1210 L 640 1215 L 646 1219 L 652 1223 L 658 1228 L 664 1231 L 670 1235 L 676 1239 L 682 1242 L 688 1245 L 694 1248 L 700 1252 L 706 1254 L 712 1257 L 718 1260 L 724 1262 L 730 1266 L 730 1272 L 728 1278 L 724 1284 L 720 1290 L 717 1296 L 714 1302 L 710 1308 L 707 1314 L 705 1320 L 702 1326 L 700 1332 L 697 1338 L 695 1344 L 692 1350 L 690 1356 L 688 1362 L 686 1368 L 685 1374 L 683 1380 L 682 1386 L 680 1392 L 679 1398 L 678 1404 L 676 1410 L 675 1416 L 674 1422 L 673 1428 L 673 1434 L 672 1440 L 671 1446 L 671 1452 L 670 1458 L 670 1464 L 670 1470 L 670 1476 L 670 1482 L 670 1488 L 670 1494 L 670 1500 L 671 1506 L 671 1512 L 672 1518 L 672 1524 L 673 1530 L 674 1536 L 675 1542 L 676 1548 L 677 1554 L 678 1560 L 679 1566 L 681 1572 L 682 1578 L 684 1584 L 686 1590 L 687 1596 L 689 1602 L 691 1608 L 693 1614 L 695 1620 L 698 1626 L 700 1632 L 702 1638 L 705 1644 L 707 1650 L 710 1656 L 712 1662 L 713 1668 L 711 1673 L 705 1673 L 699 1669 L 693 1665 L 687 1661 L 681 1656 L 675 1652 L 669 1647 L 663 1643 L 657 1638 L 651 1633 L 645 1628 L 639 1623 L 633 1617 L 627 1612 L 621 1606 L 615 1601 L 609 1595 L 603 1590 L 597 1584 L 591 1578 L 585 1572 L 580 1566 L 574 1560 L 568 1554 L 562 1548 L 557 1542 L 552 1536 L 547 1530 L 542 1524 L 537 1518 L 532 1512 L 527 1506 L 522 1500 L 518 1494 L 513 1488 L 509 1482 L 505 1476 L 501 1470 L 497 1464 L 493 1458 L 489 1452 L 485 1446 L 482 1440 L 478 1434 L 475 1428 L 471 1422 L 468 1416 L 465 1410 L 462 1404 L 459 1398 L 456 1392 L 453 1386 L 450 1380 L 448 1374 L 445 1368 L 443 1362 L 440 1356 L 438 1350 L 436 1344 L 433 1338 L 431 1332 L 429 1326 L 427 1320 L 425 1314 L 423 1308 L 421 1302 L 420 1296 L 418 1290 L 416 1284 L 415 1278 L 414 1272 L 412 1266 L 411 1260 L 410 1254 L 409 1248 L 407 1242 L 406 1236 L 405 1230 L 405 1224 L 404 1218 L 403 1212 L 402 1206 L 401 1200 L 401 1194 L 400 1188 L 399 1182 L 399 1176 L 398 1170 L 398 1164 L 398 1158 L 397 1152 L 397 1146 L 397 1140 L 397 1134 L 396 1128 L 396 1122 L 396 1116 L 396 1110 L 396 1104 L 396 1098 L 396 1092 L 396 1086 L 396 1080 L 396 1074 L 396 1068 L 397 1062 L 397 1056 L 397 1050 L 397 1044 L 398 1038 L 398 1032 L 399 1026 L 399 1020 L 400 1014 L 400 1008 L 401 1002 L 401 996 L 402 990 L 403 984 L 403 978 L 404 972 L 405 966 L 406 960 L 407 954 L 408 948 L 409 942 L 410 936 L 411 930 L 412 924 L 413 918 L 414 912 L 415 906 L 416 900 L 418 894 L 419 888 L 420 882 L 422 876 L 423 870 L 425 864 L 427 858 L 428 852 L 430 846 L 432 840 L 434 834 L 435 828 L 437 822 L 439 816 L 441 810 L 443 804 L 446 798 L 448 792 L 451 786 L 453 780 L 455 774 L 458 768 L 460 762 L 463 756 L 466 750 L 469 744 L 472 738 L 475 732 L 478 726 L 481 720 L 485 714 L 488 708 L 492 702 L 495 696 L 499 690 L 503 684 L 507 678 L 511 672 L 515 666 L 519 660 L 524 654 L 529 648 L 532 642 L 528 636 L 522 631 L 516 626 L 510 622 L 504 616 L 498 610 L 492 604 L 487 598 L 482 592 L 479 586 L 475 580 L 471 574 L 468 568 L 466 562 L 463 556 L 461 550 L 460 544 L 458 538 L 457 532 L 457 526 L 456 520 L 456 514 L 456 508 L 456 502 L 457 496 L 459 490 L 460 484 L 462 478 L 464 472 L 467 466 L 470 460 L 474 454 L 477 448 L 482 442 L 487 436 L 493 430 L 499 425 L 505 420 L 511 417 L 517 413 L 523 410 L 529 407 L 535 405 L 541 404 L 547 402 L 553 401 L 559 401 Z" fill="#FFFFFF" fill-rule="evenodd"/>
  </g>
</svg>
